<svg xmlns="http://www.w3.org/2000/svg" width="36" height="36" viewBox="0 0 36 36"><defs><style>.a{fill:#fff;}.b{fill:none;stroke:#13141a;stroke-width:2px;opacity:0.997;}</style></defs><g transform="translate(1.623 11.746)"><rect class="a" width="36" height="36" rx="10" transform="translate(-1.623 -11.746)"/><path class="b" d="M16.572,1.566A4.842,4.842,0,0,0,12.972,0a4.531,4.531,0,0,0-2.828.975A5.783,5.783,0,0,0,9,2.168,5.78,5.78,0,0,0,7.856.975,4.53,4.53,0,0,0,5.028,0a4.842,4.842,0,0,0-3.6,1.566A5.619,5.619,0,0,0,0,5.4,6.691,6.691,0,0,0,1.785,9.786a38.053,38.053,0,0,0,4.469,4.191c.619.527,1.321,1.125,2.05,1.762a1.057,1.057,0,0,0,1.391,0c.729-.637,1.431-1.235,2.051-1.762a38.036,38.036,0,0,0,4.469-4.191A6.69,6.69,0,0,0,18,5.4,5.618,5.618,0,0,0,16.572,1.566Zm0,0" transform="translate(7.377 -2.246)"/></g></svg>